<?xml version="1.0" encoding="UTF-8"?>
<svg id="Capa_1" data-name="Capa 1" xmlns="http://www.w3.org/2000/svg" version="1.1" viewBox="0 0 317.69 132.8">
  <defs>
    <style>
      .cls-1 {
        fill: #145cc6;
      }

      .cls-1, .cls-2, .cls-3, .cls-4, .cls-5 {
        stroke-width: 0px;
      }

      .cls-2 {
        fill: none;
      }

      .cls-3 {
        fill: #ff0031;
      }

      .cls-4 {
        fill: #009ffe;
      }

      .cls-5 {
        fill: #5a6e7f;
      }
    </style>
  </defs>
  <g>
    <path class="cls-4" d="M144.8,101.85v17h-2.22v-17h2.22Z"/>
    <path class="cls-4" d="M159.04,106.71c1.01.98,1.51,2.4,1.51,4.26v7.88h-2.2v-7.56c0-1.33-.33-2.35-1-3.06-.67-.71-1.58-1.06-2.73-1.06s-2.1.37-2.79,1.1c-.69.73-1.04,1.8-1.04,3.2v7.39h-2.22v-13.37h2.22v1.9c.44-.68,1.04-1.21,1.79-1.58.76-.37,1.59-.56,2.5-.56,1.63,0,2.94.49,3.95,1.48Z"/>
    <path class="cls-4" d="M169.17,116.8l4.15-11.32h2.37l-5.25,13.37h-2.58l-5.24-13.37h2.39l4.17,11.32Z"/>
    <path class="cls-4" d="M190,112.99h-10.68c.08,1.32.53,2.35,1.35,3.09s1.82,1.11,2.99,1.11c.96,0,1.76-.22,2.4-.67s1.09-1.04,1.35-1.79h2.39c-.36,1.28-1.07,2.33-2.15,3.13-1.07.81-2.41,1.21-4,1.21-1.27,0-2.4-.28-3.4-.85s-1.79-1.38-2.35-2.43c-.57-1.05-.85-2.26-.85-3.65s.28-2.59.83-3.63c.55-1.04,1.33-1.84,2.33-2.4,1-.56,2.15-.84,3.45-.84s2.39.28,3.37.83,1.73,1.31,2.26,2.28c.53.97.79,2.06.79,3.28,0,.42-.02.87-.07,1.34ZM187.22,109.01c-.37-.61-.88-1.07-1.52-1.39-.64-.32-1.35-.48-2.13-.48-1.12,0-2.08.36-2.87,1.07s-1.24,1.71-1.35,2.98h8.44c0-.85-.19-1.57-.56-2.18Z"/>
    <path class="cls-4" d="M196.89,105.87c.72-.42,1.61-.63,2.65-.63v2.29h-.58c-2.49,0-3.73,1.35-3.73,4.05v7.27h-2.22v-13.37h2.22v2.17c.39-.76.95-1.36,1.67-1.78Z"/>
    <path class="cls-4" d="M204.07,118.54c-.81-.35-1.46-.84-1.93-1.46-.47-.63-.73-1.35-.78-2.16h2.29c.06.67.38,1.21.94,1.63s1.3.63,2.21.63c.84,0,1.51-.19,2-.56.49-.37.73-.85.73-1.42s-.26-1.02-.78-1.3c-.52-.28-1.33-.56-2.42-.84-.99-.26-1.8-.52-2.43-.79-.63-.27-1.16-.67-1.61-1.19s-.67-1.22-.67-2.09c0-.68.2-1.31.61-1.88s.98-1.02,1.73-1.35c.75-.33,1.6-.5,2.56-.5,1.48,0,2.68.38,3.59,1.12.91.75,1.4,1.77,1.46,3.07h-2.22c-.05-.7-.33-1.26-.84-1.68-.51-.42-1.2-.63-2.06-.63-.8,0-1.43.17-1.9.51-.47.34-.71.79-.71,1.34,0,.44.14.8.43,1.08s.64.51,1.07.68c.43.17,1.03.36,1.79.57.96.26,1.74.52,2.34.77s1.12.63,1.55,1.13.65,1.16.67,1.98c0,.73-.2,1.39-.61,1.98-.41.58-.98,1.04-1.72,1.38s-1.59.5-2.55.5c-1.02,0-1.94-.17-2.76-.52Z"/>
    <path class="cls-4" d="M214.9,102.87c-.29-.29-.44-.65-.44-1.07s.15-.78.44-1.07c.29-.29.65-.44,1.07-.44s.75.15,1.04.44c.29.29.43.65.43,1.07s-.14.78-.43,1.07c-.28.29-.63.44-1.04.44s-.78-.15-1.07-.44ZM217.05,105.48v13.37h-2.22v-13.37h2.22Z"/>
    <path class="cls-4" d="M223.26,118.21c-1.02-.57-1.81-1.38-2.39-2.43s-.87-2.26-.87-3.65.3-2.57.89-3.62,1.4-1.85,2.43-2.42c1.02-.56,2.17-.84,3.44-.84s2.42.28,3.44.84c1.03.56,1.83,1.36,2.43,2.4.59,1.04.89,2.25.89,3.63s-.3,2.6-.92,3.65-1.43,1.86-2.48,2.43-2.2.85-3.46.85-2.39-.28-3.4-.85ZM228.9,116.56c.7-.37,1.26-.93,1.7-1.68s.65-1.66.65-2.73-.21-1.98-.63-2.73c-.42-.75-.98-1.31-1.66-1.67-.68-.37-1.42-.55-2.22-.55s-1.56.18-2.23.55c-.67.37-1.21.92-1.62,1.67-.41.75-.61,1.66-.61,2.73s.2,2.01.6,2.76c.4.75.93,1.3,1.6,1.67.67.37,1.4.55,2.2.55s1.54-.19,2.24-.56Z"/>
    <path class="cls-4" d="M246.9,106.71c1.01.98,1.51,2.4,1.51,4.26v7.88h-2.2v-7.56c0-1.33-.33-2.35-1-3.06-.67-.71-1.58-1.06-2.73-1.06s-2.1.37-2.79,1.1c-.69.73-1.04,1.8-1.04,3.2v7.39h-2.22v-13.37h2.22v1.9c.44-.68,1.04-1.21,1.79-1.58s1.59-.56,2.5-.56c1.63,0,2.94.49,3.95,1.48Z"/>
    <path class="cls-4" d="M264.17,112.99h-10.68c.08,1.32.53,2.35,1.35,3.09.82.74,1.82,1.11,2.99,1.11.96,0,1.76-.22,2.4-.67.64-.45,1.09-1.04,1.35-1.79h2.39c-.36,1.28-1.07,2.33-2.15,3.13-1.07.81-2.41,1.21-4,1.21-1.27,0-2.4-.28-3.4-.85s-1.79-1.38-2.35-2.43c-.57-1.05-.85-2.26-.85-3.65s.28-2.59.83-3.63c.55-1.04,1.33-1.84,2.33-2.4,1-.56,2.15-.84,3.45-.84s2.39.28,3.37.83c.97.55,1.73,1.31,2.26,2.28.53.97.79,2.06.79,3.28,0,.42-.03.87-.07,1.34ZM261.39,109.01c-.38-.61-.88-1.07-1.53-1.39-.64-.32-1.35-.48-2.13-.48-1.12,0-2.08.36-2.87,1.07-.79.72-1.24,1.71-1.35,2.98h8.44c0-.85-.19-1.57-.56-2.18Z"/>
    <path class="cls-4" d="M269.15,118.54c-.81-.35-1.46-.84-1.93-1.46-.47-.63-.73-1.35-.78-2.16h2.29c.06.67.38,1.21.94,1.63s1.3.63,2.21.63c.84,0,1.51-.19,2-.56.49-.37.73-.85.73-1.42s-.26-1.02-.78-1.3c-.52-.28-1.33-.56-2.42-.84-.99-.26-1.8-.52-2.43-.79-.63-.27-1.16-.67-1.61-1.19s-.67-1.22-.67-2.09c0-.68.2-1.31.61-1.88s.98-1.02,1.73-1.35c.75-.33,1.6-.5,2.56-.5,1.48,0,2.68.38,3.59,1.12.91.75,1.4,1.77,1.46,3.07h-2.22c-.05-.7-.33-1.26-.84-1.68-.51-.42-1.2-.63-2.06-.63-.8,0-1.43.17-1.9.51-.47.34-.71.79-.71,1.34,0,.44.14.8.43,1.08s.64.51,1.07.68c.43.17,1.03.36,1.79.57.96.26,1.74.52,2.34.77s1.12.63,1.55,1.13.65,1.16.67,1.98c0,.73-.2,1.39-.61,1.98-.41.58-.98,1.04-1.72,1.38s-1.59.5-2.55.5c-1.02,0-1.94-.17-2.76-.52Z"/>
    <path class="cls-4" d="M286.71,105.86c.75-1.33,1.77-2.36,3.06-3.11s2.73-1.12,4.31-1.12c1.85,0,3.47.45,4.85,1.34,1.38.89,2.39,2.16,3.02,3.81h-2.66c-.47-1.02-1.15-1.81-2.04-2.37s-1.95-.83-3.18-.83-2.25.28-3.2.83c-.94.55-1.68,1.34-2.22,2.35-.54,1.02-.8,2.21-.8,3.57s.27,2.53.8,3.55c.54,1.02,1.28,1.8,2.22,2.35.94.55,2.01.83,3.2.83s2.3-.27,3.18-.82,1.57-1.33,2.04-2.35h2.66c-.63,1.63-1.64,2.88-3.02,3.77-1.38.89-3,1.33-4.85,1.33-1.58,0-3.01-.37-4.31-1.11-1.29-.74-2.31-1.77-3.06-3.08-.75-1.32-1.12-2.81-1.12-4.46s.38-3.15,1.12-4.48Z"/>
    <path class="cls-4" d="M307.63,118.42c-.89-.4-1.58-.95-2.09-1.66-.5-.71-.76-1.52-.78-2.45h2.37c.08.8.41,1.47.99,2.01s1.42.82,2.52.82,1.89-.26,2.5-.79c.61-.53.92-1.21.92-2.04,0-.65-.18-1.18-.54-1.58s-.8-.72-1.34-.93c-.54-.21-1.26-.44-2.17-.68-1.12-.29-2.02-.58-2.7-.88s-1.25-.75-1.73-1.38c-.48-.63-.72-1.47-.72-2.53,0-.93.24-1.75.71-2.46s1.13-1.27,1.99-1.66c.85-.39,1.83-.58,2.94-.58,1.59,0,2.9.4,3.92,1.2,1.02.8,1.59,1.85,1.72,3.17h-2.44c-.08-.65-.42-1.22-1.02-1.72s-1.4-.74-2.39-.74c-.93,0-1.68.24-2.27.72s-.88,1.15-.88,2.01c0,.62.17,1.12.52,1.51s.78.69,1.29.89c.51.2,1.23.43,2.16.7,1.12.31,2.02.61,2.71.91.68.3,1.27.76,1.76,1.39s.73,1.48.73,2.55c0,.83-.22,1.61-.66,2.34-.44.73-1.09,1.33-1.95,1.78-.86.46-1.88.68-3.05.68s-2.13-.2-3.01-.6Z"/>
  </g>
  <path class="cls-5" d="M263.33,51.71c1.56-1.22,2.99-2.63,4.25-4.24l-2.31-3.87c.36-.55.71-1.11,1.02-1.7.11-.2.21-.41.31-.61l4.51.08c.77-1.89,1.29-3.83,1.58-5.78l-3.94-2.2c.06-.89.06-1.79,0-2.67l3.94-2.18c-.28-1.99-.8-3.93-1.53-5.8l-4.51.06c-.39-.8-.83-1.57-1.33-2.32l2.33-3.85c-1.22-1.56-2.63-2.99-4.23-4.25l-3.87,2.31c-.54-.37-1.11-.71-1.7-1.03-.2-.11-.41-.21-.61-.31l.09-4.51c-1.89-.77-3.84-1.29-5.79-1.58l-2.2,3.94c-.89-.06-1.79-.06-2.67,0l-2.18-3.94c-1.99.28-3.94.79-5.8,1.54l.06,4.51c-.8.39-1.58.83-2.32,1.32l-3.86-2.33c-1.56,1.22-2.99,2.63-4.25,4.24l2.31,3.87c-.36.55-.71,1.11-1.03,1.7-.11.2-.21.41-.31.61l-4.51-.09c-.76,1.89-1.29,3.83-1.57,5.79l3.94,2.2c-.06.89-.06,1.79,0,2.67l-3.94,2.18c.28,1.99.8,3.94,1.54,5.8l4.51-.06c.39.8.83,1.58,1.32,2.32l-2.33,3.86c1.22,1.56,2.63,2.99,4.23,4.25l3.87-2.3c.54.36,1.11.71,1.7,1.03.2.11.41.21.61.31l-.09,4.51c1.9.77,3.84,1.29,5.79,1.58l2.2-3.94c.89.06,1.78.06,2.67,0l2.18,3.94c1.99-.28,3.93-.8,5.8-1.54l-.06-4.51c.8-.39,1.57-.84,2.32-1.33l3.85,2.33ZM242.57,40.18c-4.51-2.97-5.77-9.06-2.8-13.57,2.97-4.51,9.06-5.77,13.57-2.8,4.51,2.97,5.77,9.06,2.8,13.57-2.97,4.51-9.06,5.77-13.57,2.8Z"/>
  <path class="cls-1" d="M86.33,17.98c2.32,2.45,3.48,5.8,3.48,10.05v16.16c0,1.45-1.18,2.63-2.63,2.63h-6.01c-1.45,0-2.63-1.18-2.63-2.63v-14.67c0-1.72-.48-3.06-1.44-4.02-.96-.96-2.26-1.44-3.91-1.44s-2.95.48-3.91,1.44c-.96.96-1.44,2.3-1.44,4.02v14.67c0,1.45-1.18,2.63-2.63,2.63h-6.01c-1.45,0-2.63-1.18-2.63-2.63v-14.67c0-1.72-.47-3.06-1.41-4.02-.94-.96-2.23-1.44-3.88-1.44s-3.01.48-3.96,1.44-1.44,2.3-1.44,4.02v14.67c0,1.45-1.18,2.63-2.63,2.63h-6.01c-1.45,0-2.63-1.18-2.63-2.63v-26.21c0-1.87,1.52-3.39,3.39-3.39h4.48c1.87,0,3.39,1.52,3.39,3.39v.86c1-1.38,2.29-2.48,3.88-3.3,1.59-.82,3.42-1.24,5.49-1.24,2.37,0,4.49.52,6.35,1.55,1.86,1.03,3.32,2.49,4.4,4.37,1.15-1.76,2.66-3.19,4.54-4.28,1.88-1.09,3.94-1.64,6.21-1.64,4.06,0,7.25,1.23,9.57,3.68ZM110.94,15.51c1.61-.88,3.5-1.32,5.69-1.32,2.57,0,4.89.67,6.98,2.01,2.09,1.34,3.73,3.26,4.94,5.75,1.21,2.49,1.81,5.4,1.81,8.73s-.6,6.25-1.81,8.76c-1.21,2.51-2.85,4.43-4.94,5.77-2.09,1.34-4.41,2.01-6.98,2.01-2.18,0-4.07-.44-5.66-1.32-1.59-.88-2.84-2.07-3.76-3.56v13.44c0,1.48-1.2,2.68-2.68,2.68h-5.91c-1.48,0-2.68-1.2-2.68-2.68V17.27c0-1.48,1.2-2.68,2.68-2.68h5.91c1.48,0,2.68,1.2,2.68,2.68v1.81c.88-1.49,2.13-2.68,3.73-3.56ZM117.23,25.77c-1.13-1.17-2.52-1.75-4.17-1.75s-3.04.59-4.17,1.78c-1.13,1.19-1.69,2.81-1.69,4.88s.56,3.75,1.69,4.94c1.13,1.19,2.52,1.78,4.17,1.78s3.04-.6,4.17-1.81c1.13-1.21,1.69-2.84,1.69-4.91s-.57-3.74-1.69-4.91ZM150.87,15.91c.78-.46,1.58-.83,2.41-1.09,1.69-.54,3.39.81,3.39,2.58v6.24c0,1.48-1.2,2.68-2.68,2.68h-.48c-2.45,0-4.27.48-5.46,1.44-1.19.96-1.78,2.62-1.78,5v11.4c0,1.48-1.2,2.68-2.68,2.68h-5.91c-1.48,0-2.68-1.2-2.68-2.68v-26.88c0-1.48,1.2-2.68,2.68-2.68h5.91c1.48,0,2.68,1.2,2.68,2.68v3.01c1.26-1.84,2.8-3.29,4.6-4.37ZM188.82,32.98h-18.81c.11,1.76.6,3.07,1.46,3.94.86.86,1.96,1.29,3.3,1.29,1.46,0,2.59-.51,3.41-1.53.48-.6,1.15-1,1.92-1h6.82c2.06,0,3.36,2.23,2.33,4.01-.39.67-.84,1.32-1.34,1.93-1.44,1.74-3.25,3.11-5.43,4.11-2.18,1-4.6,1.49-7.24,1.49-3.18,0-6-.67-8.47-2.01-2.47-1.34-4.41-3.25-5.8-5.75-1.4-2.49-2.1-5.42-2.1-8.79s.69-6.29,2.07-8.76c1.38-2.47,3.3-4.38,5.77-5.72s5.31-2.01,8.53-2.01,5.99.65,8.45,1.95c2.45,1.3,4.37,3.17,5.75,5.6,1.38,2.43,2.07,5.3,2.07,8.59,0,0,0,.02,0,.03,0,1.45-1.22,2.62-2.68,2.62ZM180,27.52c0-1.38-.46-2.46-1.38-3.25-.92-.79-2.07-1.18-3.45-1.18s-2.51.37-3.39,1.12c-.88.75-1.46,1.85-1.72,3.3h9.94ZM202.03,45.76c-2.28-.98-4.08-2.32-5.4-4.02-.48-.61-.88-1.25-1.2-1.93-.86-1.78.44-3.85,2.42-3.85h5.72c.95,0,1.75.57,2.24,1.38.24.4.56.75.96,1.03.8.57,1.8.86,2.99.86.92,0,1.65-.19,2.18-.57.54-.38.8-.88.8-1.49,0-.8-.44-1.4-1.32-1.78-.88-.38-2.34-.8-4.37-1.26-2.3-.46-4.21-.98-5.75-1.55-1.53-.58-2.86-1.51-3.99-2.82-1.13-1.3-1.69-3.06-1.69-5.29,0-1.91.52-3.65,1.55-5.2,1.03-1.55,2.56-2.79,4.57-3.71,2.01-.92,4.43-1.38,7.27-1.38,4.21,0,7.53,1.03,9.94,3.1,1.48,1.27,2.58,2.78,3.29,4.54s-.64,3.62-2.51,3.62h-5.05c-.93,0-1.73-.56-2.19-1.37-.22-.4-.51-.74-.87-1.01-.71-.55-1.66-.83-2.84-.83-.92,0-1.62.17-2.1.52-.48.34-.72.82-.72,1.44,0,.77.44,1.35,1.32,1.75.88.4,2.3.81,4.25,1.24,2.34.5,4.28,1.05,5.83,1.67,1.55.61,2.91,1.6,4.08,2.96,1.17,1.36,1.75,3.21,1.75,5.54,0,1.88-.55,3.56-1.64,5.06s-2.64,2.67-4.65,3.53c-2.01.86-4.38,1.29-7.1,1.29-2.91,0-5.51-.49-7.79-1.46ZM280.29,45.76c-2.28-.98-4.08-2.32-5.4-4.02-.48-.61-.88-1.25-1.2-1.93-.86-1.78.44-3.85,2.42-3.85h5.72c.95,0,1.75.57,2.24,1.38.24.4.56.75.96,1.03.8.57,1.8.86,2.99.86.92,0,1.65-.19,2.18-.57.54-.38.8-.88.8-1.49,0-.8-.44-1.4-1.32-1.78-.88-.38-2.34-.8-4.37-1.26-2.3-.46-4.21-.98-5.75-1.55-1.53-.58-2.86-1.51-3.99-2.82-1.13-1.3-1.69-3.06-1.69-5.29,0-1.91.52-3.65,1.55-5.2,1.03-1.55,2.56-2.79,4.57-3.71,2.01-.92,4.43-1.38,7.27-1.38,4.21,0,7.53,1.03,9.94,3.1,1.48,1.27,2.58,2.78,3.29,4.54s-.64,3.62-2.51,3.62h-5.05c-.93,0-1.73-.56-2.19-1.37-.22-.4-.51-.74-.87-1.01-.71-.55-1.66-.83-2.84-.83-.92,0-1.62.17-2.1.52-.48.34-.72.82-.72,1.44,0,.77.44,1.35,1.32,1.75.88.4,2.3.81,4.25,1.24,2.34.5,4.28,1.05,5.83,1.67,1.55.61,2.91,1.6,4.08,2.96,1.17,1.36,1.75,3.21,1.75,5.54,0,1.88-.55,3.56-1.64,5.06s-2.64,2.67-4.65,3.53c-2.01.86-4.38,1.29-7.1,1.29-2.91,0-5.51-.49-7.79-1.46ZM29.9,2.82v41.19c0,1.55-1.26,2.82-2.82,2.82h-7.39c-1.55,0-2.82-1.26-2.82-2.82V2.82c0-1.55,1.26-2.82,2.82-2.82h7.39c1.55,0,2.82,1.26,2.82,2.82Z"/>
  <path class="cls-2" d="M267.95,69.97c-4.09-.11-7.67,3.14-7.95,7.22-.29,4.35,3.03,8.07,7.36,8.28,4.28.2,7.91-3.1,8.12-7.37.2-4.33-3.18-8-7.53-8.12Z"/>
  <path class="cls-5" d="M283.02,90.46c.91-1.12,1.69-2.34,2.35-3.65l-2.37-2.52c.34-.83.61-1.7.82-2.6l3.39-.68c.11-.71.19-1.43.22-2.16.04-.73.03-1.45-.02-2.17l-3.32-1c-.12-.91-.31-1.8-.57-2.66l2.6-2.28c-.53-1.36-1.19-2.65-1.99-3.85l-3.37.79c-.55-.72-1.16-1.39-1.82-2.01l1.11-3.29c-1.12-.9-2.34-1.69-3.64-2.33l-2.52,2.36c-.83-.34-1.7-.61-2.59-.82l-.68-3.39c-.7-.11-1.43-.19-2.16-.23-.73-.04-1.45-.03-2.17.01l-1,3.32c-.91.12-1.8.31-2.66.57l-2.28-2.6c-1.36.52-2.65,1.19-3.85,1.98l.79,3.37c-.72.55-1.39,1.17-2.01,1.83l-3.28-1.11c-.91,1.12-1.69,2.34-2.34,3.64l2.37,2.52c-.34.83-.62,1.7-.83,2.6l-3.39.68c-.11.71-.19,1.43-.22,2.16-.03.73-.03,1.46.01,2.17l3.32,1c.12.91.32,1.8.57,2.66l-2.6,2.29c.52,1.36,1.19,2.65,1.98,3.84l3.38-.79c.55.72,1.16,1.39,1.83,2.01l-1.11,3.28c1.12.9,2.34,1.69,3.64,2.34l2.52-2.37c.83.34,1.7.62,2.59.82l.69,3.4c.7.11,1.42.19,2.15.22.73.04,1.45.03,2.17-.02l1-3.31c.91-.12,1.8-.32,2.66-.57l2.28,2.6c1.36-.52,2.65-1.19,3.85-1.98l-.79-3.38c.72-.55,1.39-1.16,2.01-1.82l3.28,1.11ZM263.47,83.76c-3.23-2.22-4.05-6.66-1.82-9.89,2.22-3.23,6.66-4.05,9.89-1.82,3.23,2.22,4.05,6.66,1.82,9.89-2.22,3.23-6.66,4.05-9.89,1.82Z"/>
  <path class="cls-3" d="M46.14,57.33c-1.21-1.09-1.81-2.46-1.81-4.11s.6-3.08,1.81-4.19c1.21-1.11,2.81-1.67,4.8-1.67s3.53.56,4.74,1.67c1.21,1.11,1.81,2.51,1.81,4.19s-.6,3.02-1.81,4.11c-1.21,1.09-2.79,1.64-4.74,1.64s-3.59-.55-4.8-1.64ZM56.51,65.06v26.02c0,1.72-1.39,3.11-3.11,3.11h-5.04c-1.72,0-3.11-1.39-3.11-3.11v-26.02c0-1.72,1.39-3.11,3.11-3.11h5.04c1.72,0,3.11,1.39,3.11,3.11ZM62.92,69.31c1.21-2.49,2.86-4.4,4.97-5.75,2.11-1.34,4.44-2.01,7.01-2.01,2.07,0,3.92.43,5.54,1.29,1.63.86,2.9,2.04,3.82,3.53v-11.6c0-1.71,1.39-3.1,3.1-3.1h5.11c1.71,0,3.1,1.39,3.1,3.1v36.31c0,1.71-1.39,3.1-3.1,3.1h-5.11c-1.71,0-3.1-1.39-3.1-3.1v-1.38c-.88,1.49-2.13,2.68-3.73,3.56-1.61.88-3.5,1.32-5.69,1.32-2.57,0-4.89-.67-6.98-2.01-2.09-1.34-3.73-3.27-4.94-5.77-1.21-2.51-1.81-5.43-1.81-8.76s.6-6.24,1.81-8.73ZM82.62,73.16c-1.13-1.19-2.52-1.78-4.17-1.78s-3.08.58-4.19,1.75c-1.11,1.17-1.67,2.81-1.67,4.91s.55,3.71,1.67,4.91c1.11,1.21,2.51,1.81,4.19,1.81s3.04-.59,4.17-1.78c1.13-1.19,1.69-2.83,1.69-4.94s-.57-3.7-1.69-4.88ZM101.98,69.31c1.21-2.49,2.85-4.4,4.94-5.75,2.09-1.34,4.41-2.01,6.98-2.01,2.22,0,4.14.44,5.75,1.32s2.85,2.07,3.73,3.56v-1.7c0-1.53,1.24-2.78,2.78-2.78h5.71c1.53,0,2.78,1.24,2.78,2.78v27.15c0,1.27-1.03,2.31-2.31,2.31h-6.65c-1.27,0-2.31-1.03-2.31-2.31v-2.17c-.88,1.49-2.14,2.68-3.76,3.56-1.63.88-3.53,1.32-5.72,1.32-2.57,0-4.89-.67-6.98-2.01-2.09-1.34-3.73-3.27-4.94-5.77-1.21-2.51-1.81-5.43-1.81-8.76s.6-6.24,1.81-8.73ZM121.69,73.16c-1.13-1.19-2.52-1.78-4.17-1.78s-3.08.58-4.19,1.75c-1.11,1.17-1.67,2.81-1.67,4.91s.55,3.71,1.67,4.91c1.11,1.21,2.51,1.81,4.19,1.81s3.04-.59,4.17-1.78c1.13-1.19,1.69-2.83,1.69-4.94s-.57-3.7-1.69-4.88ZM141.31,69.31c1.38-2.49,3.3-4.4,5.77-5.75s5.29-2.01,8.47-2.01c4.1,0,7.55,1.12,10.34,3.36,1.96,1.57,3.43,3.58,4.41,6.03.65,1.61-.56,3.37-2.29,3.37h-7.08c-.84,0-1.67-.4-2.08-1.14-.76-1.35-1.94-2.02-3.53-2.02-1.42,0-2.54.58-3.36,1.75-.82,1.17-1.23,2.88-1.23,5.14s.41,3.98,1.23,5.17c.82,1.19,1.94,1.78,3.36,1.78,1.62,0,2.8-.67,3.54-2.01.41-.74,1.23-1.15,2.08-1.15h7.07c1.71,0,2.94,1.72,2.31,3.3-.98,2.45-2.46,4.47-4.43,6.06-2.8,2.26-6.24,3.39-10.34,3.39-3.18,0-6-.67-8.47-2.01s-4.4-3.25-5.77-5.75-2.07-5.42-2.07-8.79.69-6.24,2.07-8.73ZM194.97,86.54v5.69c0,1.08-.87,1.95-1.95,1.95h-2.93c-8.24,0-12.35-4.08-12.35-12.24v-10.63h-2.06c-1.05,0-1.9-.85-1.9-1.9v-5.56c0-1.05.85-1.9,1.9-1.9h2.06v-5.41c0-1.33,1.08-2.4,2.4-2.4h6.51c1.33,0,2.4,1.08,2.4,2.4v5.41h3.91c1.08,0,1.95.87,1.95,1.95v5.47c0,1.08-.87,1.95-1.95,1.95h-3.91v10.8c0,.88.2,1.51.6,1.9s1.08.57,2.04.57h1.32c1.08,0,1.95.87,1.95,1.95ZM201.03,57.33c-1.21-1.09-1.81-2.46-1.81-4.11s.6-3.08,1.81-4.19c1.21-1.11,2.81-1.67,4.8-1.67s3.53.56,4.74,1.67c1.21,1.11,1.81,2.51,1.81,4.19s-.6,3.02-1.81,4.11c-1.21,1.09-2.79,1.64-4.74,1.64s-3.59-.55-4.8-1.64ZM211.4,65.19v25.77c0,1.79-1.45,3.23-3.23,3.23h-4.79c-1.79,0-3.23-1.45-3.23-3.23v-25.77c0-1.79,1.45-3.23,3.23-3.23h4.79c1.79,0,3.23,1.45,3.23,3.23ZM218.07,69.31c1.38-2.49,3.3-4.4,5.77-5.75s5.29-2.01,8.47-2.01c4.1,0,7.55,1.12,10.34,3.36,1.47,1.18,2.66,2.6,3.58,4.27,1.27,2.3-.44,5.12-3.07,5.12h-4.93c-1.18,0-2.23-.64-2.92-1.6-.76-1.04-1.83-1.56-3.23-1.56s-2.54.58-3.36,1.75c-.82,1.17-1.23,2.88-1.23,5.14s.41,3.98,1.23,5.17c.82,1.19,1.94,1.78,3.36,1.78s2.5-.52,3.25-1.55c.69-.96,1.74-1.61,2.92-1.61h4.9c2.62,0,4.35,2.82,3.08,5.11-.92,1.65-2.11,3.07-3.57,4.26-2.8,2.26-6.24,3.39-10.34,3.39-3.18,0-6-.67-8.47-2.01s-4.4-3.25-5.77-5.75-2.07-5.42-2.07-8.79.69-6.24,2.07-8.73ZM295.19,93.13c-2.28-.98-4.08-2.32-5.4-4.02-.6-.77-1.08-1.59-1.44-2.46-.66-1.58.57-3.32,2.29-3.32h6.13c.92,0,1.72.55,2.18,1.34.24.42.57.77.98,1.07.8.57,1.8.86,2.99.86.92,0,1.65-.19,2.18-.57.54-.38.8-.88.8-1.49,0-.8-.44-1.4-1.32-1.78-.88-.38-2.34-.8-4.37-1.26-2.3-.46-4.21-.98-5.75-1.55-1.53-.58-2.86-1.51-3.99-2.82-1.13-1.3-1.69-3.06-1.69-5.29,0-1.91.52-3.65,1.55-5.2,1.03-1.55,2.56-2.79,4.57-3.71,2.01-.92,4.43-1.38,7.27-1.38,4.21,0,7.53,1.03,9.94,3.1,1.57,1.34,2.71,2.96,3.42,4.86.6,1.6-.59,3.3-2.29,3.3h-5.39c-.93,0-1.73-.56-2.19-1.37-.22-.4-.51-.74-.87-1.01-.71-.55-1.66-.83-2.84-.83-.92,0-1.62.17-2.1.52-.48.34-.72.82-.72,1.44,0,.77.44,1.35,1.32,1.75.88.4,2.3.81,4.25,1.24,2.34.5,4.28,1.05,5.83,1.67,1.55.61,2.91,1.6,4.08,2.96,1.17,1.36,1.75,3.21,1.75,5.54,0,1.88-.55,3.56-1.64,5.06s-2.64,2.67-4.65,3.53c-2.01.86-4.38,1.29-7.1,1.29-2.91,0-5.51-.49-7.79-1.46ZM31.6,50.82c3.71,1.98,6.57,4.75,8.58,8.31,2,3.56,3,7.63,3,12.21s-1.01,8.59-3.04,12.15c-2.03,3.56-4.9,6.35-8.61,8.38-3.72,2.03-8.02,3.04-12.91,3.04H6.39c-3.53,0-6.39-2.86-6.39-6.39v-34.27c0-3.53,2.86-6.39,6.39-6.39h12.23c4.94,0,9.27.99,12.98,2.97ZM26.63,80.22c2.18-2.09,3.27-5.05,3.27-8.88s-1.09-6.86-3.27-8.98c-2.18-2.11-5.18-3.17-9.01-3.17h-4.54v24.16h4.54c3.83,0,6.83-1.04,9.01-3.14Z"/>
</svg>